<?xml version="1.0" encoding="utf-8"?>
<!-- Generator: Adobe Illustrator 16.0.0, SVG Export Plug-In . SVG Version: 6.00 Build 0)  -->
<!DOCTYPE svg PUBLIC "-//W3C//DTD SVG 1.1//EN" "http://www.w3.org/Graphics/SVG/1.1/DTD/svg11.dtd">
<svg version="1.1" id="Layer_1" xmlns="http://www.w3.org/2000/svg" xmlns:xlink="http://www.w3.org/1999/xlink" x="0px" y="0px"
	 width="792px" height="612px" viewBox="0 0 792 612" enable-background="new 0 0 792 612" xml:space="preserve">
<g>
	<path d="M176.712,438.354"/>
	<path d="M715.629,433.166"/>
	<g>
		<path d="M120.58,440.121c-0.361,0.475-0.93,0.822-1.211,1.42c-2.574,5.473-24.436,6.668-27.839,0.564
			c-0.393-0.701-1.188,0.996-1.68,1.564c-0.498,0.564-1.102,0.992-1.815,1.275c-0.182,0.287-0.565,0.59-1.146,0.922
			s-6.173,4.451-8.811,0.926c-0.647-0.869-0.806-2.037-0.806-3.264c0-16.711,15.694-14.813,16.146-13.768
			c0.171,0.096,0.44,0.141,0.799,0.141c0.632,0,1.213-0.234,1.748-0.709c0.54-0.477,1.031-0.711,1.478-0.711
			c0.452,0,0.86,0.383,1.216,1.139c-0.268,0.756-0.626,1.395-1.078,1.914c-0.446,0.518-0.67,1.301-0.67,2.34
			c0,0.756,5.772,15.197,21.517,6.035c0.761-0.445,1.521-0.83,2.153-1.492c0.363,0,0.537,0.143,0.537,0.424
			C121.117,439.217,120.943,439.646,120.58,440.121z M86.146,431.322c-0.356,0-5.575,9.443-2.553,12.631
			c0.061,0.064,0.187,0.006,0.267,0.068c2.665,2.076,5.881-6.406,6.058-6.736C91.183,434.881,86.6,431.322,86.146,431.322z"/>
		<path d="M173.897,431.465c-0.399,0.188-0.688,0.516-0.868,0.996c-1.524,0.943-3.029,1.912-4.51,2.904
			c-1.48,0.998-3.024,1.875-4.643,2.629c-0.355,0-0.711,0.281-1.069,0.848c-0.632,0.193-1.191,0.475-1.682,0.855
			c-0.496,0.375-1.012,0.705-1.55,0.992c-1.968,1.135-3.988,2.244-6.051,3.332c-2.064,1.09-4.146,2.088-6.252,2.984
			c-2.109,0.898-4.284,1.631-6.525,2.197c-2.238,0.57-4.485,0.854-6.724,0.854c-4.345,0-10.145-2.068-12.907-5.965
			c-0.19-0.273-2.167-7.162-2.023-11.35c0.017-0.568-0.144-5.875,0.679-6.248c-0.232,0.107-2.696-0.221-2.696-0.988
			c0-1.131,1.588-1.908,2.825-2.275c0.901-0.262,0.673-3.734,0.673-4.109c0-0.475-0.234-4.439,1.478-5.82
			c0.201-0.164,0.384-0.287,0.606-0.287c0.229,0,0.431-0.047,0.609-0.141c0.177-0.094,0.353-0.211,0.529-0.352
			c0.182-0.145,0.408-0.213,0.678-0.213c0.452,0,2.639,1.943,1.884,3.973c-0.268,0.725-1.075,5.348-1.075,6.104v0.992
			c1.968,0.193,3.878,0.252,5.714,0.424c4.279,0.414,14.082,0.248,17.418-0.424l5.786-0.852c0.355,0,0.534,0.141,0.534,0.424
			c0,0.281-0.358,0.57-1.077,0.852c-7.477,2.975-24.971,2.834-26.628,2.834h-1.883c-0.176,0.385-0.226,1.184-0.469,2.35
			c-0.645,3.084,0.883,8.381,1.004,9.152c0.507,3.191,4.195,6.668,6.125,7.236c1.922,0.568,3.923,0.943,5.982,0.855
			c6.721-0.295,13.806-3.551,16.679-4.971c2.869-1.42,5.623-2.936,8.272-4.541c2.641-1.609,5.042-3.123,7.192-4.543
			c0.535,0,1.012-0.236,1.411-0.709c0.403-0.475,0.918-0.707,1.55-0.707h0.402c0.179-0.381,0.355-0.572,0.532-0.572
			c0.185,0.094,0.316,0.141,0.408,0.141c0.091,0.1,0.226,0.141,0.405,0.141C174.55,430.947,174.305,431.275,173.897,431.465z"/>
		<path d="M189.429,442.105c-2.239,0.949-4.482,2.063-6.729,3.336c-2.235,1.279-4.582,1.939-6.988,2.346
			c-3.581,0.602-11.865-0.117-15.201-2.627c-2.015-1.516-1.524-6.221-1.615-6.318c0.309-1.457,1.602-5.904,2.964-7.805
			c0.968-1.348,4.673-5.813,9.282-5.813c0.068,0,0.143,0,0.217,0.002c0.635,0.021,1.205,0.139,1.731,0.35
			c0.579,0.234,2.084,3.617,2.084,4.186c0,0.664-0.402,1.441-1.213,2.338c-0.802,0.904-1.747,1.775-2.819,2.627
			c-1.075,0.855-2.159,1.613-3.229,2.271c-1.081,0.664-1.883,1.045-2.426,1.139c-0.177,0.186-0.265,0.424-0.265,0.705
			c0,0.855,2.326,3.836,3.23,4.4c0.888,0.564,1.784,1.127,2.751,1.42c5.715,1.707,14.509-1.971,15.265-2.697
			c0.811-0.771,4.141-3.18,5.789-2.695C193.054,439.504,189.875,441.541,189.429,442.105z M168.714,429.334
			c-0.711,0.381-1.345,1.043-1.883,1.988c-0.534,0.945-0.802,3.404-0.802,3.404s2.663-2.029,3.153-2.406
			C169.682,431.938,168.894,429.432,168.714,429.334z"/>
		<path d="M229.17,442.105c-1.299,0.949-8.317,5.178-14.126,6.389c-7.2,1.504-18.285,2.238-22.592-4.113
			c-0.306-0.449-2.53-4.59-2.892-5.25c0.18-0.383-0.835-7.949,0-12.35c1.042-5.488-0.003-13.865,1.348-19.018
			c0,0-0.245-6.305,2.352-7.521c0.729-0.342,1.098-0.994,1.817-0.994c0.179,0.289,1.478,1.469,1.478,1.846
			c0,0.381-0.32,4.24-0.67,6.104c-1.505,7.916-2.104,21.566-1.078,27.391c0.063,0.371-0.083,8.432,9.751,10.994
			c3.504,0.916,19.716-1.598,22.462-4.254c0.614-0.594,3.454-2.721,4.035-3.191c0.582-0.475,1.544-0.617,1.544-0.428
			C232.599,437.709,230.474,441.16,229.17,442.105z"/>
		<path d="M356.248,430.758c1.478-20.783,4.104-34.035,4.236-35.979c0.32-4.736-0.945-6.033-0.945-6.033
			c0-1.133-0.399-6.381-0.667-7.518l1.612-2.555c0.447-0.283,2.418-1.416,2.961-1.416c0.979,0,1.591,0.445,1.812,1.348
			c0.226,0.895,0.336,1.771,0.336,2.623c0,0,0.629-0.33,0.538-0.424c0.628-0.854,1.48-4.826,2.021-5.676
			c0-0.758,3.735-9.896,6.586-13.059c4.606-5.111,16.455-9.287,19.906-1.277c3.947,9.148,2.738,22.699-0.791,32.934
			c-1.298,3.766-6.07,12.051-6.07,12.051c0,0.281-1.566,3.031-1.745,3.121c0.537-0.09,2.556-0.428,3.093-0.422
			c4.369,0.031,13.99,4.674,14.603,5.361c10.057,11.293,12.402,24.096,5.434,35.936c-0.955,1.625-2.141,3.104-3.494,4.469
			c-6.477,6.529-19.098,6.439-25.014,4.471c-1.354-0.449-2.712-1.043-4.107-1.703c-1.384-0.66-2.641-1.535-3.763-2.627
			c-1.119-1.086-1.822-2.533-1.679-4.326c0.513-6.4,1.891-10.6,5.276-13.459c0.396-0.338,2.895,0.473,1.72,4.234
			c-0.038,0.131-2.478,9.727,5.975,11.822c0.675,0.17,12.065,4.939,18.594-1.236c12.783-12.09,4.117-28.449-5.273-35.064
			c-7.527-5.305-18.804,1.201-19.973,1.201c-0.446,0-1.574,0.617-2.418-0.277c-0.862-0.916,0.044-1.137,0.136-1.424
			c0.088-0.287,0.399-0.615,0.939-0.992c0.717-0.471,1.434-1.088,2.153-1.848c0.714-0.754,2.823-2.219,3.093-2.695
			c0.265-0.469,2.831-3.082,3.898-5.393c4.523-9.791,6.988-19.996,7.14-24.041c0.168-4.529,0.1-11.605-2.928-16.27
			c-2.715-4.174-6.308-3.182-9.88-0.354c-2.098,1.662-4.411,7.479-4.411,7.764c-1.166,2.461-5.615,12.09-6.326,14.736
			c-0.18,0.662-1.527,7.189-1.886,9.084c-0.361,1.891-0.629,3.832-0.808,5.818l0.728,14.115c0.088,1.326-1.175,30.209-1.266,30.867
			c0,0,0.141,14.232-1.615,17.887c-3.504,7.311-7.82-5.682-7.934-6.248C354.541,450.699,354.69,445.408,356.248,430.758
			 M363.037,418.693c0,0-0.27-2.035-0.27-2.412v0.709c0,0-0.648,1.918-0.604,2.059c0.044,0.139-0.739,6.316-0.739,6.316
			c0,0.426-0.684,7.814-1.075,11.205c-0.469,4.057,1.285,18.102,1.612,20.439v0.141C362.05,456.396,363.216,419.639,363.037,418.693
			z"/>
		<path d="M251.758,440.832c-1.475,0.945-2.979,1.846-4.501,2.697c-2.333,1.322-4.729,2.506-7.198,3.545
			c-2.462,1.045-8.94,1.869-9.208,1.918c-0.27,0.045-5.386-1.006-8.747-3.902c-3.318-2.865-3.605-12.439-3.562-13.768
			c0.047-1.324,0.11-2.646,0.069-3.971c-0.072-2.127,6.092-3.453,6.453-3.551c0.358,0.098-0.405,6.576-0.405,8.66
			c0,3.5,1.442,6.258,2.829,9.223c3.923,8.373,22.368-2.178,23.534-2.842c0.623-0.377,3.63-2.271,3.63-2.271
			C255.017,436.57,253.245,439.887,251.758,440.832z M220.897,409.613c-0.201-0.787,3.049-2.605,3.763-2.699
			c0.18,0.189,1.037,0.213,1.213,0.072c0.18-0.141,0.358-0.213,0.535-0.213c0.449,0,3.239,2.373,2.559,3.973
			c-0.036,0.086,0.047,0.143,0.135,0.143C229.101,411.361,222.06,414.166,220.897,409.613z"/>
		<path d="M312.34,431.182c-2.332,0.945-4.75,1.609-7.264,1.984c-2.509,0.381-4.995,0.637-7.394,1.139
			c-3.468,0.725-9.191-0.283-9.819-0.283c-0.177,0.189,0.7,3.785,0.741,4.254c0.047,0.473,0.342,7.367-1.552,9.363
			c-0.546,0.576-2.776,1.854-3.496,1.854c-0.98,0-1.85-1.012-2.149-3.695c-0.053-0.471,0.815-1.816,0.67-3.973
			c-0.276-4.115-1.205-8.967-1.205-9.576c0-0.617-0.224-1.164-0.678-1.631c0.091-0.291,1.774-3.246,4.711-4.26
			c0.358-0.125,1.792,3.357,1.88,3.828c0.358-0.283,0.788-0.518,1.279-0.705c0.499-0.189,1.635-0.711,2.084-0.711
			c1.081,0,1.497,1.916,3.093,1.988c6.451,0.299,27.752-3.836,28.113-4.123c0.446,0,1.252,0.201,1.072,0.717
			C321.865,428.963,313.328,430.807,312.34,431.182z"/>
		<path d="M451.799,433.166c-0.355,0-1.525,0.191-1.883,0.287c-0.088,0.094-3.629-0.287-3.629-0.287
			c-0.537-0.189-2.334,1.133-2.02,1.703c0.918,1.662-0.402,5.941-1.479,7.307c-1.08,1.375-1.629,2.936-2.559,4.053
			c-3.752,4.512-9.863,2.836-10.488,2.836c-0.896-0.852-1.326-2.105-2.084-3.338c-2.182-3.563,0.201-8.535,0.201-9.574v-0.428
			c0-0.283,1.723-6.041,6.857-8.441c0.553-0.26,1.102-0.482,1.658-0.648c2.549-0.74,5.65,1.377,6.279,1.566l1.613,0.568
			c0.178,0.189,1.166,0.564,2.957,1.133c1.795,0.564,3.857,0.855,6.189,0.855s4.57-0.311,6.723-0.924
			c2.148-0.617,4.66-1.494,7.531-2.625c0.18,0.096,0.338,0.119,0.473,0.074c0.133-0.049,0.543-0.047,0.471,0.207
			C467.523,431.156,451.975,433.166,451.799,433.166z M436.469,431.037c-0.898-0.029-1.551,0.285-1.949,0.85
			c-0.408,0.574-2.09,7.67-2.09,7.67c-0.715,4.342,1.842,5.105,2.826,5.105h0.135c0.18-0.281,0.463-0.674,0.879-1.133
			c3.578-3.965,2.977-9.654,2.883-9.936C439.063,433.025,439.848,431.156,436.469,431.037z"/>
		<path d="M507.066,448.072c-9.504,0.121-15.309-4.615-15.803-5.043c-0.49-0.422-5.295-6.291-5.576-6.313
			c-0.549-0.047-3.631,7.613-7.535,10.357c-1.598,1.125-3.541,1.848-6.053,1.848c-2.873,0-5.021-1.182-6.457-3.549
			c-1.436-2.365-2.801-7.449-2.016-11.779c0.24-1.307,0.225-2.412,0.4-3.268c-0.268-0.375-1.023-2.895,1.078-4.109
			c1.027-0.598,2.391-1.844,2.957-0.992c2.004,2.984,1.076,6.287,1.076,7.236c0,1.133-1.063,12.389,4.576,12.063
			c3.35-0.193,7.063-5.842,7.799-9.797c0.258-1.4,0.502-4.41,1.346-5.533c0.592-0.779,4.098-2.699,5.717-1.42
			c2.639,2.088,3.135,6.557,5.248,8.869c2.104,2.32,4.563,5.77,11.701,7.027c1.662,0.295,3.385,1.072,5.447,0.992
			c6.318-0.246,10.977-2.697,11.426-2.697c0.631,0,0.943,0.238,0.943,0.713C522.982,443.338,514.906,447.967,507.066,448.072z"/>
		<path d="M576.461,492.629c-0.416,4.602-4.75,22.377-18.898,31.648c-1.625,1.063-3.916,0.992-6.252,0.992
			c-1.527,0-11.547-1.457-16.207-6.959c-4.191-4.943-4.646-10.039-4.771-10.922c-1.996-14.559,2.861-22.859,5.648-25.047
			c1.479-1.166-6.211,17.35-2.15,26.039c3.441,7.365,4.627,10.379,9.412,11.564c33.896,8.4,29.65-56.4,28.381-62.23
			c-1.076-4.93-4.631-16.297-9.15-18.305c-0.928-0.41-6.184,5.68-6.184,5.68c-2.553,1.838-6.014,1.357-6.928,0.564
			c-2.346-2.049-0.609-7.57-0.336-8.369c0.238-0.695,1.826-5.521,5.578-8.301c0.949-0.703,1.906-1.305,2.895-1.775
			c0.986-0.477,3.305-0.711,4.303-0.287c1.758,0.742,0.57,2.871,0.537,3.836c-0.012,0.299,1.125,0.279,1.213,0.279
			c0.629-0.467,1.387-0.711,2.285-0.711c0.359,0,0.723,0.191,1.076,0.574c0.178,0.375,0.828,3.383,0.873,3.898
			c0.045,0.52,6.707,18.652,8.072,25.83C577.814,470.926,577.814,477.629,576.461,492.629z M556.422,431.182
			c0,0-3.398,3.051-3.229,9.08c0.02,0.695,0.381,1.258,0.607,1.773c0.223,0.523,0.738,0.807,1.549,0.783
			c2.48-0.08,4.162-5.76,4.301-6.248C560.979,431.906,556.422,431.182,556.422,431.182z"/>
		<path d="M695.744,446.229c0,0.469-1.389,1.086-1.748,1.27c-0.359,0.193-7.662,1.846-9.014,1.846c-1.072,0-2.34,0.027-3.76-0.211
			c-6-0.992-11.436-4.92-12.51-6.957c-1.078-2.033-1.883-3.805-2.424-5.318c-0.447,1.514-3.988,6.055-4.438,7.377
			c0,0-1.277,1.736-4.172,2.84c-3.008,1.154-4.316,0.945-5.244-1.42c-1.4-3.576-3.225-13.053-3.225-14.754
			c0-1.232,0.668-2.205,2.018-2.912c1.344-0.705,2.512-1.066,3.496-1.066c0.357,0,0.629,0.146,0.809,0.43
			c0,0.85,0.953,5.32,0.805,8.654c-0.01,0.189,0.604,4.611,0.738,5.037s1.998,0.074,2.621-1.064
			c0.629-1.137,1.258-2.412,1.889-3.826c0.623-1.426,2.426-6.25,4.438-6.531c0.797-0.113,1.545-0.33,2.217-0.992
			c0.674-0.662,2.873-0.814,3.027-0.289c1.207,4.104,0.066,9.795,2.424,11.781c1.039,0.879,4.928,4.213,6.18,4.684
			c1.26,0.475,12.127,1.352,12.982,1.205C693.705,445.867,695.744,445.748,695.744,446.229z"/>
		<path d="M708.582,447.357c-2.855,1.887-10.121,1.789-15.264-0.424c-0.6-0.256-0.811-1.561-0.811-1.561
			c0.092,0,0.158-0.021,0.205-0.072c0.043-0.047,0.109-0.068,0.203-0.068c0.447,0,10.021,1.326,10.223,1.273
			c2.988-0.779,0.873-3.002,0.738-3.332c-0.135-0.332-8.133-3.123-8.408-8.447v-0.139c0,0,0.266-2.445,0.268-3.266
			c0.008-3.229,5.666-6.125,10.359-5.252c0.982,0.186,2.844,0.387,3.424,0.785c1.988,1.359-0.465,3.33-0.465,3.33
			c-0.092,0.191-1.076,0.91-2.088,0.072c-0.244-0.203-1.141-1.342-1.41-1.629c-0.271-0.289-0.762-0.477-1.479-0.568
			c-0.449,0.092-2.488,1.365-2.961,3.262c-1.313,5.271,6.861,5.105,9.082,10.287C710.223,441.674,711.965,445.123,708.582,447.357z"
			/>
		<line fill="none" x1="162.496" y1="433.889" x2="162.311" y2="433.494"/>
		<path fill="none" d="M78.084,439.115"/>
		<path d="M127.474,426.635"/>
		<path d="M120.932,443.529"/>
		<path d="M123.672,434.666"/>
		<path d="M171.209,425.225"/>
		<path d="M194.468,432.461"/>
		<path d="M280.162,443.424c-2.241,0.945-4.485,2.063-6.729,3.336c-2.235,1.275-4.587,1.938-6.994,2.344
			c-3.578,0.604-11.862-0.117-15.195-2.625c-2.021-1.516-1.526-6.223-1.615-6.318c0.307-1.459,1.597-5.908,2.961-7.807
			c0.971-1.346,4.673-5.814,9.279-5.814c0.074,0,0.148,0,0.221,0.006c0.634,0.021,1.204,0.137,1.729,0.344
			c0.581,0.24,2.089,3.623,2.089,4.191c0,0.664-0.405,1.441-1.215,2.338c-0.806,0.898-1.748,1.771-2.823,2.627
			c-1.072,0.852-2.156,1.609-3.226,2.271c-1.078,0.664-1.886,1.045-2.429,1.135c-0.174,0.188-0.262,0.426-0.262,0.709
			c0,0.855,2.326,3.834,3.229,4.4c0.893,0.564,1.789,1.127,2.754,1.42c5.715,1.705,14.506-1.977,15.264-2.699
			c0.811-0.77,4.138-3.18,5.789-2.693C283.781,440.822,280.608,442.855,280.162,443.424z M259.445,430.652
			c-0.712,0.377-1.346,1.039-1.881,1.988c-0.537,0.945-0.808,3.404-0.808,3.404s2.666-2.029,3.159-2.41
			C260.412,433.254,259.626,430.748,259.445,430.652z"/>
		<path d="M288.674,440.643"/>
		<path d="M360.62,435.582"/>
		<path d="M451.975,433.166"/>
		<path d="M548.836,431.193c-2.332,0.941-4.754,1.605-7.268,1.984c-2.508,0.377-4.994,0.633-7.396,1.135
			c-3.461,0.725-9.189-0.281-9.818-0.281c-0.178,0.188,0.699,3.783,0.74,4.254c0.047,0.475,0.348,7.369-1.549,9.365
			c-0.545,0.578-2.773,1.85-3.498,1.85c-0.979,0-1.848-1.012-2.146-3.693c-0.053-0.467,0.814-1.814,0.668-3.971
			c-0.275-4.115-1.207-8.967-1.207-9.58s-0.223-1.16-0.678-1.629c0.092-0.289,1.777-3.244,4.715-4.26
			c0.355-0.125,1.791,3.355,1.883,3.828c0.355-0.281,0.785-0.516,1.273-0.707c0.498-0.189,1.637-0.707,2.084-0.707
			c1.08,0,1.5,1.912,3.092,1.986c6.455,0.299,27.752-3.834,28.113-4.119c0.449,0,1.256,0.197,1.076,0.715
			C558.357,428.977,549.816,430.814,548.836,431.193z"/>
		<path d="M533.83,507.766"/>
		<path d="M577.814,491.896"/>
		<path d="M573.506,504.881"/>
		<path d="M571.711,458.594"/>
		<path d="M574.666,443.174"/>
		<path d="M576.172,438.275"/>
		<path d="M635.434,432.949c-0.359,0-1.525,0.189-1.881,0.281c-0.092,0.096-3.633-0.281-3.633-0.281
			c-0.539-0.191-2.332,1.133-2.018,1.703c0.918,1.66-0.406,5.938-1.479,7.305c-1.078,1.377-1.633,2.936-2.555,4.047
			c-3.756,4.52-9.867,2.838-10.492,2.838c-0.9-0.848-1.33-2.102-2.084-3.336c-2.182-3.559,0.203-8.533,0.203-9.578v-0.426
			c0-0.279,1.721-6.037,6.855-8.441c0.555-0.258,1.988-0.742,2.154-0.783c1.963-0.547,8.563,2.84,10.354,3.406
			c1.797,0.566,3.854,0.854,6.186,0.854s4.576-0.309,6.727-0.922c2.15-0.617,4.662-1.494,7.535-2.625
			c0.178,0.098,0.336,0.119,0.471,0.07c0.127-0.047,0.541-0.045,0.467,0.209C651.158,430.939,635.611,432.949,635.434,432.949z
			 M620.1,430.818c-0.898-0.031-1.543,0.283-1.945,0.848c-0.408,0.57-2.088,7.668-2.088,7.668c-0.713,4.344,1.975,5.635,2.826,5.107
			c4.088-2.52,3.988-10.787,3.895-11.068C622.699,432.805,623.482,430.939,620.1,430.818z"/>
		<path d="M655.441,434.705"/>
		<path d="M659.205,431.596"/>
		<path d="M606.705,443.215c-2.242,0.947-4.486,2.063-6.732,3.336c-2.236,1.275-4.584,1.938-6.988,2.342
			c-3.58,0.605-11.861-0.117-15.201-2.627c-2.018-1.516-1.521-6.221-1.611-6.314c0.309-1.459,1.596-5.908,2.963-7.805
			c0.965-1.348,4.672-5.816,9.279-5.816c0.072,0,0.146,0,0.221,0.006c0.629,0.021,1.201,0.137,1.729,0.346
			c0.582,0.238,2.084,3.621,2.084,4.188c0,0.662-0.406,1.443-1.211,2.338c-0.807,0.902-1.75,1.775-2.822,2.627
			c-1.078,0.854-2.156,1.611-3.229,2.271c-1.078,0.662-1.883,1.043-2.426,1.139c-0.176,0.186-0.268,0.42-0.268,0.707
			c0,0.854,2.33,3.834,3.23,4.398c0.895,0.566,1.787,1.129,2.758,1.418c5.711,1.709,14.506-1.971,15.264-2.693
			c0.805-0.775,4.139-3.182,5.783-2.697C610.324,440.609,607.148,442.65,606.705,443.215z M585.99,430.443
			c-0.717,0.379-1.348,1.039-1.883,1.984s-0.805,3.406-0.805,3.406s2.666-2.031,3.156-2.412
			C586.955,433.043,586.17,430.537,585.99,430.443z"/>
	</g>
</g>
</svg>
