<?xml version="1.0" encoding="utf-8"?>
<!-- Generator: Adobe Illustrator 16.0.0, SVG Export Plug-In . SVG Version: 6.00 Build 0)  -->
<!DOCTYPE svg PUBLIC "-//W3C//DTD SVG 1.1//EN" "http://www.w3.org/Graphics/SVG/1.1/DTD/svg11.dtd">
<svg version="1.1" id="Layer_1" xmlns="http://www.w3.org/2000/svg" xmlns:xlink="http://www.w3.org/1999/xlink" x="0px" y="0px"
	 width="792px" height="612px" viewBox="0 0 792 612" enable-background="new 0 0 792 612" xml:space="preserve">
<path d="M180.861,169.029"/>
<path d="M184.723,167.665"/>
<path d="M165.626,142.673"/>
<g>
	<path d="M142.932,127.044"/>
	<path stroke="#000000" stroke-width="0.5" stroke-miterlimit="10" d="M161.928,111.956c-4.484,3.959-9.58,7.938-15.336,11.918
		C152.573,119.942,157.647,115.962,161.928,111.956z"/>
	<path stroke="#000000" stroke-width="0.5" stroke-miterlimit="10" d="M145.075,126.78c-2.43,1.77-7.25-0.516-11.109-2.906
		C137.473,126.188,142.904,129.135,145.075,126.78z"/>
	<path stroke="#000000" stroke-width="0.5" stroke-miterlimit="10" d="M117.949,110.561c3.481-0.99,9.826-4.26,13.566-9.222
		c14.994-19.883-4.957-59.961-43.637-35.624c-0.381-0.296-0.567,0.133-5.089-3.395c-4.521-3.527-13.426-4.579-13.426-4.579
		s-2.972,0.03-2.851,0.568c8.392,38.414,5.977,109.354-11.903,134.104c1.809-0.754,16.646-8.809,23.35-18.191
		c14.595-23.186,20.995-97.567,12.945-106.157c-0.047-0.05,6.258-5.318,13.638-4.929c18.126,0.954,23.072,24.712,14.569,37.105
		c-0.43,0.531-4.268,6.445-5.618,7.687c-1.355,1.239-4.118,3.754-4.526,4.006c-0.637,0.797-0.487,1.635,0.457,2.518
		c1.589-0.188,7.632-1.271,13.774,0.445c8.672,3.703,13.012,12.059,12.416,12.889c-0.602,0.83-18.942,12.271-35.323,23.836
		c-8.932,6.305-15.569,25.485-1.048,31.985C157.883,205.098,170.94,111.589,117.949,110.561z M111.432,174.984
		c-27.859-0.552-16.03-18.133-10.598-22.2c15.953-11.938,35.579-22.188,36.06-22.477c0.516,1.213,0.932,2.463,1.129,3.782
		c0.326,1.263,0.565,2.496,0.834,3.681C143.563,158.399,123.938,175.232,111.432,174.984z"/>
</g>
<path d="M164.488,89.524l-26.873-43.073l-0.529,0.299c0,0,22.154,36.692,24.729,44.653c-3.094,2.95-1.346,5.845,1.732,9.905
	c3.842,5.076,7.45,10.66,10.521,10.356C177.518,111.325,176.917,96.614,164.488,89.524z M166.193,102.436
	c-0.756-0.826-5.994-7.891-3.486-9.792c2.818-2.14,8.271,5.773,8.955,6.661c2.646,3.438,3.849,8.805,1.5,10.498
	C172.059,110.597,169.059,105.569,166.193,102.436z"/>
<path stroke="#000000" stroke-width="0.5" stroke-miterlimit="10" d="M156.514,203.621"/>
<path stroke="#000000" stroke-width="0.5" stroke-miterlimit="10" d="M156.514,203.423"/>
<path stroke="#000000" stroke-width="0.5" stroke-miterlimit="10" d="M211.42,121.917c-4.164-1.264-1.494-8.68-7.308-8.733
	c-4.486-0.043-12.238,8.653-14.024,13.438c-4.541,12.277-2.117,21.224,4.096,29.766c1.164,1.595,0.402,8.937-7.426,18.563
	c0.784-2.654,1.239-5.781,0.637-8.506c-1.861-8.44-3.592-16.969-14.199-28.961c-1.188-1.346-5.27,7.338-6.026,12.994
	c1.924,17.258,12.829,14.572,15.879,29.191c-40.456,55.313-166.675,42.945-170.563-57.387
	c3.374-175.48,233.561-88.984,149.443-10.324C273.474,13.526,5.075-72.669,5.075,118.733
	c-3.477,88.852,113.993,132.941,170.627,71.722c6.537-7.184,21.586-27.727,23.752-30.803c11.744-7.25,13.769-9.512,16.563-17.705
	C222.29,123.575,220.454,124.645,211.42,121.917z M185.952,175.994c-0.51,0.66-1.024,1.32-1.555,1.996
	c-3.408-10.156-15.924-15.621-15.242-27.454c0.142-2.432,3.14-7.553,4.183-10.68C180.69,144.069,189.391,167.346,185.952,175.994z
	 M202.497,116.171c0.414-0.17,5.968,4.064,7.588,7.076c-5.002,0.267-10.403,4.281-13.377,6.791
	c-1.239-1.063-2.446-2.182-3.588-3.391C194.585,122.104,197.172,118.358,202.497,116.171z M199.107,155.553
	c0.051-0.209-1.449-0.371-2.057-0.703c-12.984-7.028-5.806-23.987-5.32-26.372c5.52,4.934,14.258,12.059,16.91,22.854
	C208.906,152.417,203.805,156.368,199.107,155.553z M210.118,146.864c-0.045-0.441-7.442-12.887-12.297-16.016
	c3.31-3.414,5.988-5.072,12.797-6.578C213.879,132.024,214.357,139.487,210.118,146.864z"/>
</svg>
